<svg xmlns="http://www.w3.org/2000/svg" viewBox="0 0 500 500"><path d="M453 222.2H339.6s11.3-30.7 28.5-30.7 22.7 21.2 22.7 21.2 11.7-11.5 21.2-11.5 17.9 15.2 17.9 15.2 13.6-8.2 23 5.8ZM100 146.1H47S59 129 68.3 129s12 11.4 12 11.4 6.6-5.3 12.7-4.4 7.1 10.1 7.1 10.1ZM361.5 62.9h-52.9s11.8-17.2 21.1-17.2 12.1 11.5 12.1 11.5 6.6-5.4 12.7-4.4 7 10 7 10ZM196.2 113.2h-103s14-31.5 29.2-33.5 22.3 23.4 22.3 23.4 9.7-9 17.4-9 13.5 11.8 13.5 11.8 15.3-8 20.6 7.3ZM180 288H77s14.1-31.6 29.2-33.6 22.3 23.4 22.3 23.4 9.7-9 17.4-9 13.6 11.9 13.6 11.9 15.2-8.1 20.5 7.2Z" style="fill:#ebebeb"/><path d="m48.8 358.8 50.3-.3h50.3l100.6-.2 100.6.2h50.3l50.3.3-50.3.2-50.3.1-100.6.2-100.6-.2-50.3-.1-50.3-.2z" style="fill:#263238"/><path d="M424.4 330.7c-3.4-4.4-7.2-9.2-7-15 .2-5.3 2-11.2 6.9-14 1.4-.8 2.4-1 2.8.7.7 2.7-.5 6-1 8.7a55.4 55.4 0 0 0-1.5 10.4l.1 7.4v1.3l.1.1a.3.3 0 0 1 0 .3.3.3 0 0 1-.4 0Z" style="fill:#ffc727"/><path d="M424.8 330.7c-2.7-4-6-8-5.6-13.1a22.5 22.5 0 0 1 1.9-6.9c.4-1 1.6-3.9 2.9-4 2.3 0-.8 9.2-1 10.3a23.5 23.5 0 0 0 1.8 12v.9a26.3 26.3 0 0 1-2.2-8.3c-.4-4 1-7.3 1.7-11.2.2-.8.8-3.4-.6-3.2-1 .1-2.2 3-2.4 3.6a22.3 22.3 0 0 0-1.7 6.5c-.5 5 2.6 9.2 5.3 13.3Z" style="fill:#fff"/><path d="m423.4 335.1-.6.3a.1.1 0 0 1-.1 0 .2.2 0 0 1-.1-.3.2.2 0 0 1 .1-.1h.3c2.4-3 5.2-5.5 7.6-8.5s4.3-5.8 6.7-8.4c1.6-1.7 9.8-9.5 11.5-4.7.8 2.2-.9 5.3-2 7a23 23 0 0 1-5.5 6.2c-5.2 4.2-11.8 5.8-17.9 8.5Z" style="fill:#ffc727"/><path d="M435.7 328.2a26.9 26.9 0 0 0 5.7-5c.6-.7 3.3-4 2.4-5-.6-.8-2.1.2-2.7.4-2.2 1.2-3.8 3.4-5.5 5.2a103 103 0 0 1-11 10.2l-.9.5-.7.3-.2.2h-.2a.2.2 0 0 0 0 .4l.6-.3-.4.3.5-.2h.1l.7-.6a112 112 0 0 0 11.6-6.4Zm-10.2 5.3a91.4 91.4 0 0 0 11.6-11 23.8 23.8 0 0 1 2.8-2.8c.8-.6 4-2.7 3.2.3-.5 2-3.3 4.5-4.9 5.8a38.9 38.9 0 0 1-5.7 4l-7 3.7Z" style="fill:#fff"/><path d="M413 346.3a.6.6 0 0 1-.2-.1c-2.7-4.3-7-9.4-6.8-14.8.2-4 2.4-9.2 6.3-10.8 4.4-1.8 3.5 6.5 3.4 8.7a152.8 152.8 0 0 1-2.5 17h-.3Z" style="fill:#ffc727"/><path d="M413.1 346.4v-1c-.3-4-.4-7.8-.2-11.7 0-1 .8-8.6-1.2-8.2-1.2.2-1.9 3-2.1 4a15.4 15.4 0 0 0-.6 5c.3 4 2.3 7.5 3.7 11.2l.2.5v.1c.1 0 .2.1.2 0Zm-3.5-9.8a15.8 15.8 0 0 1-.1-5.2c.2-1.2.9-5.3 2.3-5.4.8 0 .7.4.9 1.3a10.1 10.1 0 0 1 0 1.2v3a116.3 116.3 0 0 0 .1 14c-1-3-2.5-5.8-3.2-8.9Z" style="fill:#fff"/><path d="M426.7 347.7a29.7 29.7 0 0 1-17.3 1.8.2.2 0 0 1-.1-.3.2.2 0 0 1 .2-.1h.4c6-3.3 12-6.5 18-10 1.4-.8 10.5-5.7 11-2.2.3 2.2-3 4.7-4.5 6a29.5 29.5 0 0 1-7.7 4.8Z" style="fill:#ffc727"/><path d="M433 340.9c.4-.5.7-1 0-1.4-1.3-.5-5.5 2-6.7 2.5-5 2.6-10 4.6-15.2 6.7l-1.3.5h-.5a.2.2 0 0 0 0 .3H410.2a35 35 0 0 0 10.7-1.7 33.2 33.2 0 0 0 6.4-2.7c1.8-1.1 4.4-2.5 5.7-4.2Zm-22.6 8.3h-.3l.5-.2a99.1 99.1 0 0 0 12-4.8l5.9-3c.8-.3 3.2-1.5 4-1.1s0 1-.5 1.3l-1.2 1a34.6 34.6 0 0 1-20.4 6.8Z" style="fill:#fff"/><path d="m398 358.8-.6-.8 2.1-1.6a382.9 382.9 0 0 0 13-10.6 1 1 0 0 1 .2-.1l.4-.4.4-.3a43.3 43.3 0 0 0 8.6-10.5c.8-1.3 1.5-2.7 2.1-4l.2-.5.3-.5.1-.3c2-4.3 3.6-8.7 5.3-13l1.5-3.8v-.2l.2-.3c2.2-5.5 4.5-11 6.5-16.5.1-.2.4 0 .3.2l-3.8 11.1-.5 1.5-1 3q-1 3-2.2 5.8a143 143 0 0 1-6.7 16.3l-.6 1.1-.4.7-.5.9a46.1 46.1 0 0 1-10.9 12l-.9.7-.4.4a2 2 0 0 0-.2.1l-.3.3-.2.1-.8.6a659.5 659.5 0 0 1-11.2 8.6Z" style="fill:#ffc727"/><path d="M433 296.7c1.3-4.4 5.5-11.7 11-10.8a4.3 4.3 0 0 1 3.8 4.5c0 2.6-1.9 5-3.4 7-4.2 5.4-8.8 10.2-12.6 15.8l-.4.6c0 .1-.3 0-.2-.1l.4-.6c0-5.4-.3-11.2 1.3-16.4Z" style="fill:#ffc727"/><path d="M431.8 313.2a45.8 45.8 0 0 1 2.4-5 94.4 94.4 0 0 1 6.3-9.4c.9-1.1 5.2-6.7 1.6-7.1-1.5-.2-3 1.1-4.1 2a17 17 0 0 0-4 5.5c-1.9 4-2.3 8.6-2.4 13v.8a.4.4 0 0 0 0 .1.1.1 0 0 0 0 .1.2.2 0 0 0 .1.1Zm0-1.3a36.4 36.4 0 0 1 1.8-10.8 19.5 19.5 0 0 1 2.7-5 15.3 15.3 0 0 1 1.7-2 10.7 10.7 0 0 1 1.5-1.1c1.1-.8 2.7-1.3 3.3-.7.7.8.5 1.4-.1 2.6a11.8 11.8 0 0 1-.7 1.2 33.3 33.3 0 0 1-1.9 2.8l-3.3 4.6-2 3.2a47 47 0 0 0-3 6v-.8Z" style="fill:#fff"/><path d="M55.4 323.7c2.7 2.5 5.3 5.2 7.8 7.9l4.3 4.6c1.5 1.7 3 3.6 5.2 4.4a1 1 0 0 1 .3.2.3.3 0 0 1-.3.3h-.2a9.2 9.2 0 0 1-2-.5 48 48 0 0 1-5.4-1.6 45.9 45.9 0 0 1-10.2-5.2 38.7 38.7 0 0 1-7.7-6.7c-1.8-2.1-4.5-5.2-5-8-.4-2.5 2.8-2 4.4-1.6 3.4 1 6.3 3.8 8.8 6.2Z" style="fill:#ffc727"/><path d="M47.2 321.8c-.8 1.1 2.2 4.4 3.4 5.9a37 37 0 0 0 6.7 6.1 48 48 0 0 0 14.6 7l.6.2h.2a.3.3 0 0 0 .3-.3l-1.2-.6-1-.6c-3.8-2.2-7-5.4-10.3-8.3-3.8-3.5-12.3-10.8-13.3-9.4Zm24.1 18.4 1.6.9-1.2-.5a53.3 53.3 0 0 1-13-6.1 37.9 37.9 0 0 1-6.2-5.2 35.3 35.3 0 0 1-2.8-3.3c-.4-.5-2.7-3.4-2.1-4 .4-.3 3.2 1.5 3.2 1.5l1.6 1.1 3.2 2.5 6.4 6a50.3 50.3 0 0 0 9.3 7.1Z" style="fill:#fff"/><path d="M76 312.4c2.4 4.8 3 10.3 3 15.6v8.5a38.3 38.3 0 0 0 .2 7.6v.4a9.4 9.4 0 0 0 .7 2l.1.3-.2-.1a.1.1 0 0 1-.2-.1l-.1-.2c-4.2-3.9-6.5-10.3-8-15.5s-2.4-10.8-1-16c.4-1.4 1-4.5 2.6-5s2.3 1.5 2.8 2.5Z" style="fill:#ffc727"/><path d="M73.7 315.5c-1.6.3-1.2 4.8-1.2 5.8a56.9 56.9 0 0 0 1.5 9.8 51.3 51.3 0 0 0 5.4 15v.2a1.4 1.4 0 0 0 .2.2.1.1 0 0 0 .2.2v-.3c-.3-.6-.4-1.3-.5-2l-.1-.3a108.7 108.7 0 0 1-1.4-14.1 53.5 53.5 0 0 0-1.5-9.8c-.2-.7-1.2-4.9-2.6-4.7Zm1.5 2.4c2.2 5.1 2.1 11.3 2.5 16.8a57.6 57.6 0 0 0 1.6 11 54.3 54.3 0 0 1-4.8-13.7 73.1 73.1 0 0 1-1.4-8.1 29.2 29.2 0 0 1-.3-4.5 11.6 11.6 0 0 1 .4-2.7c.5-1.6 1.6.3 2 1.2Z" style="fill:#fff"/><path d="M88.8 353.7a.3.3 0 0 1 0 .3h.1v.2c-6.4 1-13.5 1.3-19.8-.4a25.4 25.4 0 0 1-7.5-3.4c-1.5-1-4.7-3.2-4.8-5.3-.4-4.2 10.8.2 12.5.9 3.1 1.2 6 2.7 9.1 4 3.4 1.4 6.8 2.5 10.3 3.7Z" style="fill:#ffc727"/><path d="M88.8 353.7h-1a54.7 54.7 0 0 1-16.2-4.5 50.7 50.7 0 0 0-8-3c-.6-.1-3.1-1-2.7.7.2.8 4.3 3.2 5.5 3.7a34.5 34.5 0 0 0 8 2.6 56.8 56.8 0 0 0 14.2 1h.4l-.1-.1h-.1a.3.3 0 0 0 0-.4Zm-12-.4a40.4 40.4 0 0 1-8.2-2 26.8 26.8 0 0 1-3-1.4 18.2 18.2 0 0 1-2.3-1.3c-1.7-1.3-2-1.8-2-2s.5-.4 2-.2a13.6 13.6 0 0 1 2.6.8l3.6 1.5 7.2 3a42 42 0 0 0 11 2.2 65.3 65.3 0 0 1-11-.6Z" style="fill:#fff"/><path d="M88.1 335.4a16 16 0 0 1 3.3 6c1.5 4.3 2 9 3.1 13.4l.6 2 .4.7-.6-.6a65.2 65.2 0 0 1-8.8-11.1 32.8 32.8 0 0 1-3-7.5c-.3-1.2-.8-4 .4-4.9s3.8 1.1 4.6 2Z" style="fill:#ffc727"/><path d="M85.5 336.4c-1.7.8 1.8 8.3 2.3 9.3a46.4 46.4 0 0 0 6.3 10.2l.8 1 .6.6-.4-.7-.1-.4-.5-1.6-3.3-9a42.8 42.8 0 0 0-3-6.1c-.3-.4-2-3.6-2.7-3.3Zm1.4 1.6c3.8 5.5 5.2 12.1 7.8 18.2v.3l-.2-.4a53.6 53.6 0 0 1-5.4-8.4 49.9 49.9 0 0 1-2.4-5.5 24.9 24.9 0 0 1-1-3.2c-.2-.5-.4-1.8 0-2s1 .6 1.2 1Z" style="fill:#fff"/><path d="M55 292.2c6 10 3 23 8.2 33.3v.1l.5 1a.2.2 0 0 1-.1.3.2.2 0 0 1-.2-.1v-.3a56.2 56.2 0 0 1-11.6-16.3c-2.5-5-4-10.7-3.2-16.4.2-1.4.5-4.2 2.2-4.7s3.4 1.9 4.1 3.1Z" style="fill:#ffc727"/><path d="M52.9 296c-.7.1-.8 1.2-1 1.8a17.7 17.7 0 0 0 0 4.2 29.4 29.4 0 0 0 2.2 8.6 61.3 61.3 0 0 0 7.1 13.3l2.1 2.6.3.4a.2.2 0 0 0 .2-.4l-.5-.9a36 36 0 0 1-3-6.3 85.2 85.2 0 0 1-2.8-10.6c-.3-1.4-2.2-13.6-4.6-12.8Zm1.6 2c1.2 2.5 1.6 5.5 2.2 8.4l2 8.5a41.7 41.7 0 0 0 2 6.6 32 32 0 0 0 2.8 5 44.2 44.2 0 0 1-3.3-4.5 82.2 82.2 0 0 1-4.8-9 .5.5 0 0 0 0-.1 37 37 0 0 1-2.9-8.4 21.7 21.7 0 0 1-.4-4.9c.1-1.8.4-3.3 1-3.3.4 0 1 .9 1.4 1.7Z" style="fill:#fff"/><path d="M55.7 312.9a400 400 0 0 0 5 8.6l2.5 4 1 1.6c2.6 4.3 5.2 9 8.6 12.9a43.8 43.8 0 0 0 5.9 5.6l.7.5.3.3.2.2a120 120 0 0 0 13.9 9 1.4 1.4 0 0 0 .2.2l.4.3h.2a4 4 0 0 0 .4.3l2.6 1.5-.5.8a64.3 64.3 0 0 1-8.4-4.5l-.2-.1-.8-.5-1-.6-2.3-1.6a67 67 0 0 1-12.2-10.1l-.2-.3-.1-.1-.2-.3-.4-.4-.5-.7-.2-.2a104.3 104.3 0 0 1-7.4-12l-1.3-2.2-.7-1.2-1-2c-1.6-3-3-6-4.7-9-.1 0 .1-.2.2 0Z" style="fill:#ffc727"/><ellipse cx="250" cy="416" rx="190.8" ry="32.2" style="fill:#ebebeb"/><path d="M175.8 137.6c-6.2 5.2-36.7 42.6-82.1 30.5 0 0 7.8 32.3 23.2 32.3s24.7-23.4 24.7-23.4 1.7 4 5.7 3.7c8.1-.7 22.5-24.2 28.5-37.4Z" style="fill:#ffc727"/><path d="M175.8 137.6c-6.2 5.2-36.7 42.6-82.1 30.5 0 0 7.8 32.3 23.2 32.3s24.7-23.4 24.7-23.4 1.7 4 5.7 3.7c8.1-.7 22.5-24.2 28.5-37.4Z" style="opacity:.1"/><path d="M175.8 137.6v3.7c-3.8 5.6-23 32-41.7 36.5-21 5-40.4-9.7-40.4-9.7 45.4 12.1 76-25.3 82.1-30.5Z" style="opacity:.1"/><path d="M324.2 137.6c6.2 5.2 36.7 42.6 82.1 30.5 0 0-7.8 32.3-23.2 32.3S358.4 177 358.4 177s-1.7 4-5.7 3.7c-8.1-.7-22.5-24.2-28.5-37.4Z" style="fill:#ffc727"/><path d="M324.2 137.6c6.2 5.2 36.7 42.6 82.1 30.5 0 0-7.8 32.3-23.2 32.3S358.4 177 358.4 177s-1.7 4-5.7 3.7c-8.1-.7-22.5-24.2-28.5-37.4Z" style="opacity:.1"/><path d="M324.2 137.6v3.7c3.8 5.6 23 32 41.7 36.5 21 5 40.4-9.7 40.4-9.7-45.4 12.1-76-25.3-82.1-30.5Z" style="opacity:.1"/><path d="M378.3 415.4c-5.7-.7-83.5-26-84.9-26s-21.5 1.8-43.4 1.8-42-1.7-43.4-1.7-79.2 25.2-84.9 25.9S65 346.5 67.4 344s21.3 1.4 23.5 1 38.3-21.2 38.7-23 6-46.1 12-81 19-87 34-103.5 52.6-26 74.4-26 59.2 9.5 74.3 26 28 68.8 34 103.6 11.8 79.1 12.1 80.9 36.6 22.7 38.7 23 21-3.5 23.5-1-48.7 72-54.3 71.4Z" style="fill:#ffc727"/><path d="M225.2 115c1.5-.8 8.6-8.4 18.2-11 3.3-1-2.8 6-2.8 6s14.2-8.6 19.9-10.7c9.6-3.4 14.3-4.1 14.3-2.6 0 3.6-14.9 10.2-17.4 13 0 0 8.8-2.1 11.8-.2s-7.8 3.7-7.8 3.7Z" style="fill:#ffc727"/><path d="M223.2 199.2a45.4 45.4 0 0 1 .5 15.5 38 38 0 0 1-5.1 14.9 33.3 33.3 0 0 1-5 6.2 34 34 0 0 1-6.4 4.6 37.5 37.5 0 0 1-15 4.2 48.8 48.8 0 0 0 14.2-5.5 36.8 36.8 0 0 0 5.8-4.7 32.7 32.7 0 0 0 4.6-5.9 41.5 41.5 0 0 0 5.3-14 63.8 63.8 0 0 0 1-15.3Z" style="opacity:.1"/><path d="M192.7 173.8c-19.5 0-29.3 15-29.3 32.5 0 14.2 11.6 28.6 30.3 28.6s30.4-17 30.4-30.3-10.1-30.8-31.4-30.8Z" style="fill:#fff"/><path d="M193 180.4c-15.3 0-23 11.7-23 25.4 0 11.2 9 22.5 23.7 22.5s23.8-13.3 23.8-23.8-8-24.1-24.5-24.1Z" style="fill:#263238"/><path d="M200 180.6c-7 0-10.4 5.4-10.4 11.6a10.4 10.4 0 0 0 10.8 10.2c6.6 0 10.7-6 10.7-10.8a11 11 0 0 0-11.1-11Z" style="fill:#fff"/><path d="m175.4 170.2 20 3.8c6.6 1.3 13.4 2.5 20 4l-.3 1.5-37-10.2.6-2.5c12.1 2.2 24.3 4.3 36.4 6.6l-.7 2.8-18.4-5.1-18.4-5.2.6-2.8 19.7 3.1 19.7 3.3-.5 2.5-38.2-10.3.3-1.5 19.8 2.7 19.8 2.8-19.9-2c-6.6-.6-13.3-1.2-20-2l.4-1.5 38.5 9.3-.6 2.5-19.7-3-19.8-3 .6-2.9 18.5 5.1 18.4 5.2-.6 2.9-36.3-7 .5-2.4 36.8 11-.4 1.6c-6.7-1.4-13.3-3-20-4.6l-19.8-4.8Z" style="fill:#263238"/><path d="M249 131.2c-19.5 0-29.4 15-29.4 32.5 0 14.2 11.6 28.7 30.4 28.7s30.3-17 30.3-30.4-10-30.8-31.3-30.8Z" style="fill:#fff"/><path d="M249.2 137.8c-15.3 0-23 11.8-23 25.5 0 11.1 9.1 22.4 23.8 22.4s23.7-13.3 23.7-23.7-7.9-24.2-24.5-24.2Z" style="fill:#263238"/><path d="M249.7 136.7c-7 0-10.5 5.3-10.5 11.6a10.4 10.4 0 0 0 10.8 10.2c6.7 0 10.8-6 10.8-10.8a11 11 0 0 0-11.2-11Z" style="fill:#fff"/><path d="m229 136 20.4-.4 20.5-.3v1.7l-38.4-2.5V132c12.4-.4 24.7-.8 37-1v2.9l-19.1-1.3-19.1-1.3v-2.9l20-1 20-.8v2.6l-39.6-2.2v-1.6l20-1.4 20-1.3-20 2.2L231 127v-1.6l39.5 1.3v2.5l-20 1.1-20 1v-2.9l19.2 1.3 19 1.3v3l-37 .5V132l38.3 3.4v1.6l-20.5-.5-20.4-.6Z" style="fill:#263238"/><path d="M277 199.2a63.8 63.8 0 0 0 1 15.3 41.5 41.5 0 0 0 5.3 14 32.8 32.8 0 0 0 4.6 6 36.4 36.4 0 0 0 5.8 4.6 48.6 48.6 0 0 0 14.2 5.5 37.5 37.5 0 0 1-15-4.2 33.6 33.6 0 0 1-6.4-4.6 33.3 33.3 0 0 1-5-6.2 38 38 0 0 1-5.1-14.9 45.7 45.7 0 0 1 .6-15.5Z" style="opacity:.1"/><path d="M307.4 173.8c19.6 0 29.4 15 29.4 32.5 0 14.2-11.6 28.6-30.4 28.6s-30.3-17-30.3-30.3 10.1-30.8 31.3-30.8Z" style="fill:#fff"/><path d="M307.2 180.4c15.3 0 23 11.7 23 25.4 0 11.2-9 22.5-23.7 22.5s-23.8-13.3-23.8-23.8 8-24.1 24.5-24.1Z" style="fill:#263238"/><path d="M300.1 180.6c7 0 10.5 5.4 10.5 11.6a10.4 10.4 0 0 1-10.8 10.2c-6.7 0-10.8-6-10.8-10.8a11 11 0 0 1 11.1-11Z" style="fill:#fff"/><path d="m324.6 170.2-19.9 4.7-19.8 4.6-.4-1.6 36.7-11 .6 2.4-36.3 7-.7-2.9 18.4-5.2 18.5-5 .6 2.8-19.7 3-19.8 3-.5-2.5 38.5-9.3.3 1.5c-6.7.8-13.3 1.4-20 2l-19.9 2 19.8-2.9 19.9-2.7.3 1.6-38.3 10.3-.5-2.5 19.7-3.2L322 163l.6 2.9L304 171l-18.5 5.1-.6-2.8c12.1-2.3 24.2-4.4 36.4-6.6l.6 2.5-37 10.2-.4-1.6 20-4 20.1-3.8ZM281.5 248c-1.4 3-19-1.2-31.5-1.2-13.3 0-30 4.1-31.5 1.1s6.5-33 31.5-33 33 30 31.5 33Z" style="fill:#263238"/><path d="M271.5 248.7c-6.4-.7-14.7-1.9-21.5-1.9-7.1 0-15.2 1.2-21.5 1.8 7.9-15.1 16.1-16.4 21.5-10.3 5.4-6 13.6-4.8 21.5 10.4Z" style="fill:#ff99ba"/><path d="m235.5 247.9-9.6 1 2.7-10.3 4-.7ZM276.2 249c-2.9 0-6.6-.5-10.7-1l3.9-8.4 5 .3Z" style="fill:#fff"/><path d="M316.3 274a67.8 67.8 0 0 0-9-23.3A56.5 56.5 0 0 0 291 234a51.5 51.5 0 0 0-15.7-7.1 4 4 0 0 1-1.9 2 3.5 3.5 0 0 1-3.6-.8 5.2 5.2 0 0 1-2.5 2.6c-1.7.6-3-1.1-3-1.1s-1.7 4.2-5 4.3-4.8-5.2-4.8-5.2-1.2 2.6-3.2 2.6-4.9-3.7-4.9-3.7v-.7l-1.4.5a56.7 56.7 0 0 0-20.2 11.6 67.7 67.7 0 0 0-15.2 19.7 87.7 87.7 0 0 0-7.8 54.4 67.6 67.6 0 0 0 9 23.2A55.4 55.4 0 0 0 227 353a55.6 55.6 0 0 0 46 6.6 55.1 55.1 0 0 0 20.3-11.5 67.4 67.4 0 0 0 15.2-19.7 87.9 87.9 0 0 0 7.8-54.4Zm-29.8 23.4a62.9 62.9 0 0 1-4.3 16 42.1 42.1 0 0 1-7.6 12 27.3 27.3 0 0 1-9.9 7 22 22 0 0 1-11.5 1.3 22.3 22.3 0 0 1-10.9-4.6 27.4 27.4 0 0 1-7.5-9.5A42.2 42.2 0 0 1 231 306a62.7 62.7 0 0 1 .4-16.6 63.8 63.8 0 0 1 4.4-16.2 42.4 42.4 0 0 1 7.5-12 27.3 27.3 0 0 1 10-7 22.5 22.5 0 0 1 11.6-1.2 22.1 22.1 0 0 1 10.7 4.5 27.3 27.3 0 0 1 7.5 9.5 42 42 0 0 1 3.9 13.7 64.5 64.5 0 0 1-.4 16.7Z" style="fill:#37474f"/><path d="M311 272.8a67.9 67.9 0 0 0-9-23.3 56.7 56.7 0 0 0-16.3-16.8 51.7 51.7 0 0 0-15.7-7.1 4 4 0 0 1-2 2 3.5 3.5 0 0 1-3.6-.8 5.2 5.2 0 0 1-2.4 2.6c-1.7.6-3-1.1-3-1.1s-1.8 4.2-5 4.4-4.8-5.3-4.8-5.3-1.2 2.7-3.2 2.7-4.9-3.8-4.9-3.8v-.6l-1.4.4a56.6 56.6 0 0 0-20.2 11.6 67.7 67.7 0 0 0-15.2 19.7 87.7 87.7 0 0 0-7.8 54.4 67.7 67.7 0 0 0 9 23.2 55.3 55.3 0 0 0 16.2 16.7 55.5 55.5 0 0 0 46 6.6A55.3 55.3 0 0 0 288 347a67.4 67.4 0 0 0 15.2-19.8 87.7 87.7 0 0 0 7.8-54.3Zm-29.8 23.4a63 63 0 0 1-4.4 16 42.1 42.1 0 0 1-7.5 12 27.3 27.3 0 0 1-10 7 22.1 22.1 0 0 1-11.4 1.3A22.5 22.5 0 0 1 237 328a27.3 27.3 0 0 1-7.5-9.5 42 42 0 0 1-3.9-13.6 68.3 68.3 0 0 1 4.7-32.8 42.2 42.2 0 0 1 7.6-12 27.4 27.4 0 0 1 9.9-7 22.5 22.5 0 0 1 11.7-1.3 22.1 22.1 0 0 1 10.7 4.5 27.4 27.4 0 0 1 7.5 9.6 42 42 0 0 1 3.8 13.7 64.4 64.4 0 0 1-.3 16.6Z" style="fill:#455a64"/><path d="m262 217.5-2.5 14h-6.3l-1.7-13.2-.8 8.7-6.3.3-1.8-11.6a28.7 28.7 0 0 1 7.4-1 27.7 27.7 0 0 1 12 2.8Z" style="fill:#fff"/><path d="M250 391.2v.1h-.2Z"/><path d="M249.8 391.2h.2v.1Z"/><path d="M200.4 385.5s25.7 5.7 49.4 5.7c-21.8 0-41.8-1.7-43.2-1.7s-79.2 25.2-84.8 25.9c-2.4.3-12.7-11.6-23.7-25.8 4.5 3 22.3 15.3 24.4 15.3 2.5 0 77.9-19.4 77.9-19.4ZM402.1 389.3c-11 14.3-21.5 26.4-23.9 26-5.6-.6-83.4-25.8-84.8-25.8s-21.5 1.7-43.4 1.7c23.7 0 49.4-5.7 49.4-5.7s75.5 19.4 77.9 19.4c2.2 0 21.2-13.1 24.8-15.6Z" style="opacity:.1"/><path d="M142.7 234.9s-30.5 36.5-29.1 64.7 26.6 47.8 60.1 48c0 0 14.5 2 20 0 0 0-6.8-11.4-7.5-13.2 0 0 15-4 23.6-16.5 0 0-12-5.5-17.5-11.7 0 0 7.4-11 9-12.4 0 0-15.3 1-20.6 2.1 0 0-23.6-1.4-32.9-18.4s-5-42.6-5-42.6Z" style="fill:#ffc727"/><path d="M123.7 326.3a49.5 49.5 0 0 0 10.4 9.3 62 62 0 0 0 12.4 6.5l3.3 1.1 1.6.6 1.7.4 3.3 1 3.5.5 1.7.4 1.7.1 3.5.4c2.3.2 4.6.1 7 .2h.1a79.9 79.9 0 0 0 9.9.8 38.5 38.5 0 0 0 9.7-.9l-.5 1.3-4-6.5-1.8-3.3-1.9-3.5-.4-.9 1-.3a50.6 50.6 0 0 0 6.7-2.7 55 55 0 0 0 6.2-3.6 41.4 41.4 0 0 0 5.6-4.4 34.6 34.6 0 0 0 4.6-5.4l.4 1.4a74.3 74.3 0 0 1-9.4-5.2 42.1 42.1 0 0 1-8.4-6.8l-.5-.5.4-.6a194.4 194.4 0 0 1 6.5-9.6 18 18 0 0 1 2.8-3l.5 1.6a321.4 321.4 0 0 0-20.5 2h-.1a44.2 44.2 0 0 1-14-2.9 37.8 37.8 0 0 1-12.3-7.4 35.1 35.1 0 0 1-8.2-11.6 45.8 45.8 0 0 1-3.5-13.7 47.7 47.7 0 0 0 4 13.5 34.1 34.1 0 0 0 8.4 11.1 37.3 37.3 0 0 0 12 7 42.5 42.5 0 0 0 13.6 2.5h-.1c3.4-.7 6.9-1.1 10.3-1.5s7-.6 10.4-.8l2.7-.2-2.2 1.8a17.8 17.8 0 0 0-2.3 2.7 78.4 78.4 0 0 0-6.4 9.5v-1.1a40.3 40.3 0 0 0 8 6.4l4.4 2.7 4.7 2.3 1 .5-.6 1a34 34 0 0 1-4.8 5.7 44.4 44.4 0 0 1-6 4.7 56.8 56.8 0 0 1-6.4 3.6 53 53 0 0 1-7 2.8l.6-1.2 1.7 3.3 2 3.2 3.8 6.5.6 1-1.1.3a39.3 39.3 0 0 1-10.2.9 81.6 81.6 0 0 1-10.2-1h.2l-7.1-.4-3.5-.4-1.8-.3-1.7-.3-3.5-.7-3.4-1-1.7-.5-1.7-.6-3.3-1.3a63.2 63.2 0 0 1-12.3-6.8 47.3 47.3 0 0 1-10.1-9.7Z" style="fill:#263238"/><path d="M122.5 266s-13.6 13.4-14 23c-.2 3.4 5-3.6 5-3.6s-3.8 11.9-3.2 15.5 3.3-5.4 3.3-5.4ZM356.9 233s22.5 42 15.4 69.3-35.8 41.4-68.7 34.7c0 0-14.5-1-19.6-4 0 0 9-9.8 10.1-11.4 0 0-14-7-19.7-21 0 0 12.8-3 19.5-7.9 0 0-5-12.3-6.3-14 0 0 14.7 4.2 19.7 6.3 0 0 23.4 3.4 36-11.4s13.6-40.6 13.6-40.6Z" style="fill:#ffc727"/><path d="M363.1 320.2A45.5 45.5 0 0 1 351 331a57 57 0 0 1-15 6.4 63.8 63.8 0 0 1-16.2 2 80.8 80.8 0 0 1-16.2-1.6 81.4 81.4 0 0 1-10-1 39.4 39.4 0 0 1-9.8-3l-1.1-.5.8-.9 5.1-5.5 2.5-2.8 2.3-2.8.3 1.3a53.3 53.3 0 0 1-6.2-4.1 54.5 54.5 0 0 1-5.6-5 42.6 42.6 0 0 1-4.8-5.7 32.4 32.4 0 0 1-3.6-6.6l-.4-1.1 1.1-.3a83.5 83.5 0 0 0 10-3 41 41 0 0 0 9.3-4.6l-.3 1a181.1 181.1 0 0 0-5.2-12.3 9.9 9.9 0 0 0-1-1.4l-1.8-2.2 2.8.8 10 2.9c3.4 1 6.5 2.2 9.8 3.5h-.1a42.8 42.8 0 0 0 13.8.3 37 37 0 0 0 13.2-4.4 34.1 34.1 0 0 0 10.4-9.2 46.9 46.9 0 0 0 6.6-12.4 44.6 44.6 0 0 1-6.2 12.7 35 35 0 0 1-10.4 9.7 37.6 37.6 0 0 1-13.4 4.7 44 44 0 0 1-14.4 0c-3.2-1.3-6.5-2.3-9.8-3.3l-10-2.9 1-1.4a10.1 10.1 0 0 1 1.1 1.8l1 1.7a101.4 101.4 0 0 1 4.4 10.8l.2.6-.6.4a42.8 42.8 0 0 1-9.6 5l-5 1.8a75 75 0 0 1-5.2 1.4l.7-1.3a36.3 36.3 0 0 0 7.8 11.6 53.2 53.2 0 0 0 5.4 4.8 51.5 51.5 0 0 0 6 4l.9.5-.6.8-2.5 3-2.6 2.9-5.1 5.6-.3-1.4a38.6 38.6 0 0 0 9.4 2.8 77.8 77.8 0 0 0 9.8 1.3h.2a80.3 80.3 0 0 0 16 1.8 64.1 64.1 0 0 0 16-1.7 56.4 56.4 0 0 0 15-6 53 53 0 0 0 6.6-4.5 38.7 38.7 0 0 0 5.8-5.7Z" style="fill:#263238"/><path d="M373.6 288s3 11 1.2 17.3-2.5-3-2.5-3-.8 11.8-2.1 12.4-.5-4.9-.5-4.9Z" style="fill:#ffc727"/><g style="opacity:.1"><path d="M97.1 349.7c.5 8 17.1 9 20.1.7s-20.7-10.8-20-.7ZM351 392.3c-2 6.3 9.2 11.4 13.7 5.7s-11.3-13.8-13.8-5.7ZM274.1 377.9c-.8 2.7 2.5 4 4 1.5s-3-5-4-1.5ZM348 318.2c2.7 5.8 15.4 1.5 15.2-5.6s-18.8-1.8-15.3 5.6ZM128.3 349.1c2.3 2.5-3.7 6-5.4 3.5s3.6-5.5 5.4-3.5ZM190.2 152.5c-2.6 2.2-5.2-2.4-2.7-4s4.7 2.3 2.7 4ZM361 299.4c2.4 2.4-3.6 6-5.4 3.5s3.7-5.5 5.5-3.5ZM120.5 335c6.5-1.1 6 9.5 0 8.9s-5.7-7.9 0-8.9ZM134.7 281.2c3-.5 2.8 4.5 0 4.2s-2.7-3.7 0-4.2ZM198.2 256.6c3-.5 2.8 4.5 0 4.2s-2.8-3.7 0-4.2ZM324.1 156.1c3-.5 2.8 4.5 0 4.2s-2.7-3.7 0-4.2ZM137.2 270.4c3.5-3.4 8.7 5.9 4.6 7.7s-7.8-4.6-4.6-7.7ZM347.4 224c5-.5 3.2 10-1.1 8.9s-3.3-8.4 1.1-8.8ZM291.1 380c3 4-6.8 8-8.1 3.6s5.4-7.1 8.1-3.6ZM184.2 134.6c6.4-1.1 6 9.5 0 8.9s-5.8-7.9 0-9Z"/></g><path d="m235.6 403.2 3.9-3.2 5 1.6v2.4l-8.9-.8zM261.7 403l-1-1.3 3.7.3-.6 1.2-2.1-.2zM254.6 406.3l2.6-2.3c.4-.3 5.5-.1 5.4 1.2s-.3 4.3-.9 4.3h-4.6ZM250.3 399.1l2.6-1.2 2.6-.2-.6 2.1-.5.6-3-.2-1.1-1.1zM248 401.3h.8l.5.9h-2s-.5-.1-.2-.3l.9-.6Z" style="fill:#455a64"/><path d="M126.8 418.9v-33.7h-66v-26.9l75.7-97.2h20.6v97H177v27.2h-20v33.6Zm-35.7-60.8h39V307Z" style="fill:#37474f"/><path d="M121.2 418.9v-33.7h-66v-26.9l75.7-97.2h20.6v97h19.9v27.2h-20v33.6Zm-35.7-60.8h39V307Z" style="fill:#455a64"/><path d="M394.6 418.9v-33.7h-66v-26.9l75.7-97.2H425v97h19.9v27.2h-19.9v33.6ZM359 358.1H398V307Z" style="fill:#37474f"/><path d="M389 418.9v-33.7h-66v-26.9l75.7-97.2h20.6v97h19.9v27.2h-19.9v33.6Zm-35.7-60.8h39V307Z" style="fill:#455a64"/><path d="M204.7 80.8a9.7 9.7 0 0 1-4.2-1 10.4 10.4 0 0 1-3.3-2.4 11.2 11.2 0 0 1-2.9-7.4 10.7 10.7 0 0 1 .8-4 11.3 11.3 0 0 1 2.2-3.5 10.4 10.4 0 0 1 3.3-2.4 9.8 9.8 0 0 1 4.2-.9 9.4 9.4 0 0 1 4.2 1 10.5 10.5 0 0 1 3.3 2.4 11.4 11.4 0 0 1 2 3.5 11 11 0 0 1 .8 4 10.8 10.8 0 0 1-.8 4 11 11 0 0 1-2.1 3.5 10.4 10.4 0 0 1-3.3 2.4 9.8 9.8 0 0 1-4.2.8ZM198.5 70a8.6 8.6 0 0 0 .4 2.7 7.1 7.1 0 0 0 1.3 2.2 6 6 0 0 0 2 1.6 6 6 0 0 0 5.2 0 6 6 0 0 0 2-1.6 7.3 7.3 0 0 0 1.2-2.3 8.5 8.5 0 0 0 .4-2.6 8.3 8.3 0 0 0-.4-2.6 7.4 7.4 0 0 0-1.3-2.4 5.9 5.9 0 0 0-2-1.6 6.1 6.1 0 0 0-5.2 0 6 6 0 0 0-2 1.6 7.3 7.3 0 0 0-1.2 2.3 8.6 8.6 0 0 0-.4 2.7ZM225.2 81a8.6 8.6 0 0 1-3.5-.7 7.7 7.7 0 0 1-2.6-1.8 7.9 7.9 0 0 1-1.6-2.6 8.7 8.7 0 0 1 0-6.2A8 8 0 0 1 219 67a7.7 7.7 0 0 1 2.6-1.8 9.3 9.3 0 0 1 6.9 0 7.9 7.9 0 0 1 2.6 1.8 8 8 0 0 1 1.6 2.6 8.7 8.7 0 0 1 0 6.2 8 8 0 0 1-1.6 2.6 7.6 7.6 0 0 1-2.6 1.8 8.6 8.6 0 0 1-3.4.6Zm-4.1-8.2a5.5 5.5 0 0 0 .3 1.9 4.7 4.7 0 0 0 .8 1.5 3.8 3.8 0 0 0 1.3 1 4 4 0 0 0 3.3 0 4 4 0 0 0 1.3-1 4.6 4.6 0 0 0 .9-1.5 5.6 5.6 0 0 0 .3-2 5.5 5.5 0 0 0-.3-1.8 4.6 4.6 0 0 0-1-1.5 4 4 0 0 0-1.2-1 3.8 3.8 0 0 0-1.6-.4 3.7 3.7 0 0 0-1.7.4 4 4 0 0 0-1.3 1 4.6 4.6 0 0 0-.8 1.5 5.5 5.5 0 0 0-.3 1.9ZM243.3 81a8.6 8.6 0 0 1-3.4-.7 7.8 7.8 0 0 1-2.6-1.8 8 8 0 0 1-1.6-2.6 8.7 8.7 0 0 1 0-6.2 8 8 0 0 1 1.6-2.6 7.8 7.8 0 0 1 2.6-1.8 8.6 8.6 0 0 1 3.4-.7 8.5 8.5 0 0 1 3.5.7 7.7 7.7 0 0 1 2.5 1.8 8 8 0 0 1 1.7 2.6 8.7 8.7 0 0 1 0 6.2 8 8 0 0 1-1.6 2.6 7.6 7.6 0 0 1-2.6 1.8 8.6 8.6 0 0 1-3.5.6Zm-4-8.2a5.7 5.7 0 0 0 .2 1.9 4.7 4.7 0 0 0 1 1.5 3.9 3.9 0 0 0 1.2 1 4 4 0 0 0 3.3 0 4 4 0 0 0 1.3-1 4.8 4.8 0 0 0 .8-1.5 5.4 5.4 0 0 0 .4-2 5.3 5.3 0 0 0-.4-1.8 4.8 4.8 0 0 0-.8-1.5 4 4 0 0 0-1.3-1 3.8 3.8 0 0 0-1.7-.4 3.7 3.7 0 0 0-1.6.4 4 4 0 0 0-1.3 1 4.6 4.6 0 0 0-.9 1.5 5.8 5.8 0 0 0-.3 1.9ZM263.7 81a6.2 6.2 0 0 1-3.3-.9 5.9 5.9 0 0 1-2.1-2.2V87h-4V65h3.5v2.6a6.4 6.4 0 0 1 2.2-2.2 6.3 6.3 0 0 1 3.2-.8 6.7 6.7 0 0 1 3 .7 7.3 7.3 0 0 1 2.3 1.7 8.3 8.3 0 0 1 1.5 2.6 9.1 9.1 0 0 1 .6 3.1 10 10 0 0 1-.6 3.3 8.2 8.2 0 0 1-1.4 2.6 6.6 6.6 0 0 1-2.2 1.8 6 6 0 0 1-2.7.5Zm-1.4-3.5a3.7 3.7 0 0 0 1.7-.4 4.1 4.1 0 0 0 1.3-1 5 5 0 0 0 .8-1.6 5.5 5.5 0 0 0 .3-1.8 5.1 5.1 0 0 0-.3-1.8 4.6 4.6 0 0 0-1-1.5 4.3 4.3 0 0 0-1.3-1 4.1 4.1 0 0 0-1.7-.3 3.8 3.8 0 0 0-1.2.1 4.1 4.1 0 0 0-1 .6 5.2 5.2 0 0 0-1 .8 3.5 3.5 0 0 0-.6 1v3.7a5.3 5.3 0 0 0 1.6 2.3 3.8 3.8 0 0 0 2.4 1ZM279.2 81a12.2 12.2 0 0 1-3.8-.7 9.4 9.4 0 0 1-3.3-1.8l1.5-2.5a12.9 12.9 0 0 0 2.8 1.5 7.5 7.5 0 0 0 2.7.6 3.4 3.4 0 0 0 1.9-.5 1.4 1.4 0 0 0 .7-1.3 1.3 1.3 0 0 0-.8-1.2 17.5 17.5 0 0 0-2.7-1q-1.5-.3-2.6-.7a6.7 6.7 0 0 1-1.7-1 3 3 0 0 1-1-1 3.6 3.6 0 0 1-.3-1.6 4.9 4.9 0 0 1 .4-2.2 4.7 4.7 0 0 1 1.4-1.6 6 6 0 0 1 2-1 8 8 0 0 1 2.5-.4 10.5 10.5 0 0 1 3.3.6 8.1 8.1 0 0 1 2.8 1.6l-1.6 2.4a9.4 9.4 0 0 0-2.4-1.3 6.3 6.3 0 0 0-2.2-.4 3.2 3.2 0 0 0-1.7.4 1.5 1.5 0 0 0-.7 1.3 1.3 1.3 0 0 0 .1.7 1.5 1.5 0 0 0 .6.5 5 5 0 0 0 .9.4l1.5.4 2.7.8a7.5 7.5 0 0 1 2 1 3.4 3.4 0 0 1 1 1.3 3.9 3.9 0 0 1 .3 1.7 4.4 4.4 0 0 1-1.7 3.6 7.4 7.4 0 0 1-4.6 1.3ZM288.1 80.6v-4.3h3.3v4.3ZM294.9 80.6v-4.3h3.3v4.3ZM301.6 80.6v-4.3h3.3v4.3ZM216.7 438.3v3.7H202v-21.3h14.6v3.6H206v5.2h9v3.3h-9v5.6ZM220 442v-21.3h9.4a6 6 0 0 1 2.7.6 7.1 7.1 0 0 1 2.2 1.6 7.6 7.6 0 0 1 1.4 2.3 6.8 6.8 0 0 1 .5 2.6 7 7 0 0 1-1 3.7 5.9 5.9 0 0 1-2.8 2.5l4.9 8h-4.7l-4.3-7.2h-4.1v7.2Zm4.1-10.8h5.2a2.2 2.2 0 0 0 1.1-.2 2.7 2.7 0 0 0 .8-.8 3.7 3.7 0 0 0 .6-1 4.2 4.2 0 0 0 .2-1.4 3.9 3.9 0 0 0-.2-1.4 3.8 3.8 0 0 0-.7-1 3 3 0 0 0-.9-.8 2.4 2.4 0 0 0-1-.3h-5ZM240 442v-21.3h9.3a6 6 0 0 1 2.8.6 7.1 7.1 0 0 1 2.1 1.6 7.6 7.6 0 0 1 1.4 2.3 6.8 6.8 0 0 1 .5 2.6 7 7 0 0 1-1 3.7 5.9 5.9 0 0 1-2.8 2.5l4.9 8h-4.7l-4.3-7.2H244v7.2Zm4-10.8h5.2a2.2 2.2 0 0 0 1.1-.2 2.7 2.7 0 0 0 .9-.8 3.7 3.7 0 0 0 .5-1 4.2 4.2 0 0 0 .2-1.4 3.9 3.9 0 0 0-.2-1.4 3.8 3.8 0 0 0-.6-1 3 3 0 0 0-1-.8 2.4 2.4 0 0 0-1-.3h-5ZM269 442.1a9.7 9.7 0 0 1-4.3-1 10.5 10.5 0 0 1-3.2-2.3 11.3 11.3 0 0 1-2.9-7.5 10.5 10.5 0 0 1 .8-4 11.2 11.2 0 0 1 2.2-3.5 10.5 10.5 0 0 1 3.3-2.4 9.8 9.8 0 0 1 4.2-.9 9.4 9.4 0 0 1 4.2 1 10.5 10.5 0 0 1 3.3 2.4 11.4 11.4 0 0 1 2 3.5 11 11 0 0 1 .8 4 10.8 10.8 0 0 1-.8 4 11 11 0 0 1-2.1 3.5 10.4 10.4 0 0 1-3.3 2.4 9.8 9.8 0 0 1-4.2.8Zm-6.2-10.8a8.6 8.6 0 0 0 .4 2.7 7.1 7.1 0 0 0 1.3 2.3 6.2 6.2 0 0 0 2 1.5 6 6 0 0 0 5.2 0 6.2 6.2 0 0 0 2-1.6 7.2 7.2 0 0 0 1.2-2.3 8.5 8.5 0 0 0 0-5.3 7.8 7.8 0 0 0-1.2-2.2 5.9 5.9 0 0 0-2-1.6 6 6 0 0 0-5.3 0 6 6 0 0 0-2 1.6 7.3 7.3 0 0 0-1.1 2.3 8.2 8.2 0 0 0-.5 2.6ZM282.6 442v-21.3h9.4a6.1 6.1 0 0 1 2.7.6 7.1 7.1 0 0 1 2.2 1.6 7.6 7.6 0 0 1 1.4 2.3 6.8 6.8 0 0 1 .5 2.6 7 7 0 0 1-1 3.7 5.9 5.9 0 0 1-2.8 2.5l4.8 8h-4.6l-4.4-7.2h-4v7.2Zm4-10.8h5.3a2.2 2.2 0 0 0 1-.2 2.7 2.7 0 0 0 .9-.8 3.7 3.7 0 0 0 .6-1 4.2 4.2 0 0 0 .2-1.4 3.9 3.9 0 0 0-.3-1.4 3.8 3.8 0 0 0-.6-1 3 3 0 0 0-1-.8 2.4 2.4 0 0 0-1-.3h-5Z" style="fill:#263238"/><path d="M418.9 104.3a39.6 39.6 0 0 1-66.2 25l-19.8 3 9.9-17.2a39.2 39.2 0 0 1-2.7-19 39.6 39.6 0 1 1 78.8 8.2Z" style="fill:#fff"/><path d="M418.9 104.3a40 40 0 0 1-8 20.1 44 44 0 0 1-3.6 4.1 45.5 45.5 0 0 1-4.2 3.6 38.7 38.7 0 0 1-9.6 5.3A39.5 39.5 0 0 1 383 140a38.9 38.9 0 0 1-5.5.1 34.8 34.8 0 0 1-5.5-.6 39.9 39.9 0 0 1-19.6-9.6l.5.1-19.8 3-1.4.2.7-1.2 9.8-17.2v.7a40 40 0 0 1 2.5-35.3A40.5 40.5 0 0 1 356.9 67a40.3 40.3 0 0 1 34.8-4.7 40.5 40.5 0 0 1 15.3 9.4 39.8 39.8 0 0 1 11.9 32.6Zm0 0A39.2 39.2 0 0 0 374 61.5a39 39 0 0 0-16.4 6.5 40.9 40.9 0 0 0-11.9 13 39 39 0 0 0-5 16.7 39.6 39.6 0 0 0 2.8 17.2l.2.4-.2.3-10 17.1-.7-1 19.8-2.8h.3l.2.2a39 39 0 0 0 19 9.7 34.7 34.7 0 0 0 5.3.7 37.7 37.7 0 0 0 5.5 0 38.9 38.9 0 0 0 10.6-2.4 37 37 0 0 0 9.5-5 45 45 0 0 0 4.2-3.6 43.5 43.5 0 0 0 3.6-4 39.8 39.8 0 0 0 8-20.2Z" style="fill:#263238"/><path d="M354.1 94a11.8 11.8 0 0 0 2.1 3.3c-.1 2.7 1.8 5.2 3.7 7a29 29 0 0 0 7.5 5 55.1 55.1 0 0 0 14.3 4.2 39 39 0 0 1-3 11.4c1.4-3.6 3-7.4 3.4-11.3l3 .4c1.4.3 3 .4 4.5.5a49 49 0 0 0 8 .4 13.6 13.6 0 0 0 8.7-3 8 8 0 0 0 2.4-8 14.4 14.4 0 0 0-1.4-3.6A18.4 18.4 0 0 0 406 98a25.3 25.3 0 0 0-6-6.2 43 43 0 0 0-1.9-1.3l-.3-.2A31.7 31.7 0 0 0 390 85a46 46 0 0 0-19.1-4.6 44.8 44.8 0 0 0-10 .8c-2.8.6-5.6 1.8-7 4.6a9.3 9.3 0 0 0-.3 6.3 8.3 8.3 0 0 0 .5 1.9Zm33.2 19.2-5-1v-.5l1 .1h1a45.7 45.7 0 0 0 9.5.7 41 41 0 0 0 8.3-1.3 24.8 24.8 0 0 1-14.8 2ZM377 84.5l2.6.5a21.3 21.3 0 0 0-6.7 1.2 12.8 12.8 0 0 0-6 4 14.8 14.8 0 0 0-3.4 1.5h-.7a11.4 11.4 0 0 0-2.8.8V92c0-2.7 2.2-4.6 4.5-5.6a24.3 24.3 0 0 1 8.3-2 32.2 32.2 0 0 1 4.2 0Zm-16.2 12.4.9 1a4.8 4.8 0 0 0-.8.8 5.8 5.8 0 0 1 0-1.8Zm20.8 14.7v.6a57.1 57.1 0 0 1-7-2l4.4.9 2.6.5Zm-.6-3.8a61.4 61.4 0 0 1-17.4-6.2 36 36 0 0 1-2-1.3 3 3 0 0 1 1-1.4 28.9 28.9 0 0 0 8 4.9 91.4 91.4 0 0 0 9.6 3.3.5.5 0 0 0 .5-.2.8.8 0 0 1 0 .2l.3.7ZM364.5 99l-.8-.7a6.7 6.7 0 0 1 3.7 0 29 29 0 0 1 8.2 2.7 11.3 11.3 0 0 1 4.8 5 48.9 48.9 0 0 1-16-7Zm16.9 10a9.3 9.3 0 0 1 .2 1l-1.4-.3-1.8-.5a51.6 51.6 0 0 1-9-3.7 63.7 63.7 0 0 0 10 3c.6.3 1.3.4 2 .5Zm.7.1c1.8.4 3.7.6 5.5.8a5.8 5.8 0 0 1-2.5.5 15.5 15.5 0 0 1-2.9-.3l-.1-1Zm-12.9-2.4-.4-.1a25.9 25.9 0 0 1-3.8-2l-1-.7-.6-.6-.3-.3a52.5 52.5 0 0 0 6.1 3.8Zm-8-11a6.2 6.2 0 0 1 2.4-2.9 15.1 15.1 0 0 1 2.7 0 3.5 3.5 0 0 0 1.2 1.7 35.8 35.8 0 0 0 3.9 2.6 41.8 41.8 0 0 0 15.9 5.6 9.2 9.2 0 0 1 1.8 3.6 3.5 3.5 0 0 1-.3 2.6 61 61 0 0 1-7-1l-.2-1a11.8 11.8 0 0 0-5.3-6.6 29.1 29.1 0 0 0-8.6-3.2 7.7 7.7 0 0 0-5 .2v.1a12 12 0 0 1-1.4-1.8Zm38.9 5a3.7 3.7 0 0 1-1.7.8 21.2 21.2 0 0 0-5.8-6.2 30.3 30.3 0 0 0-15.8-6 28.8 28.8 0 0 0-7.8.4l.2-.1a11.9 11.9 0 0 1 3.1-2 23 23 0 0 1 14-.7l.4.1a45.1 45.1 0 0 1 13.1 7.3l.2.2c1 1.8 1.8 4.7 0 6.2ZM367.8 91a25.8 25.8 0 0 1 7-.8 29.5 29.5 0 0 1 15 4.4 27.6 27.6 0 0 1 6 5 13.8 13.8 0 0 1 1.5 2l-1.3.2a39 39 0 0 1-4.5 0c-1.1 0-2.2 0-3.4-.2v-.1c-3.9-4.6-9.6-7-15.2-8.6a35 35 0 0 0-5.4-1.2 2.7 2.7 0 0 1 .3-.6Zm1.3 2.2a45.2 45.2 0 0 1 8.2 2.5 27.4 27.4 0 0 1 7.1 4 22 22 0 0 1 1.7 1.6 40.4 40.4 0 0 1-11.3-3.7 41.2 41.2 0 0 1-3.7-2l-2-1.4a7.5 7.5 0 0 1-1.5-1.2l1.5.2Zm28.4 14c-1.5 1.7-4.2 1.8-6.3 1.8h-.9c.8-2 0-4.3-1.3-6.1a34.2 34.2 0 0 0 8.9-.2 4 4 0 0 1-.4 4.5Zm-36.8-12.7a6.3 6.3 0 0 1-.3-.8 9.6 9.6 0 0 1 1.3-.5 6.4 6.4 0 0 0-.5.5 5.2 5.2 0 0 0-.5.8Zm44.4 14.6a13 13 0 0 1-2.1.7 38.8 38.8 0 0 1-8.2 1.5 42.6 42.6 0 0 1-6.5-.1 4.3 4.3 0 0 0 1.4-1.2c2.5.2 5.4.2 7.5-1.2a4.8 4.8 0 0 0 2.1-3 5.7 5.7 0 0 0-.4-3.3 4.2 4.2 0 0 0 2.7-2 5.3 5.3 0 0 0 .5-3.3 8.5 8.5 0 0 0-.3-1.2 20.8 20.8 0 0 1 4.5 5.5 6.2 6.2 0 0 1 .8 4.2 7 7 0 0 1-1.9 3.3Zm-45.5-10.3a25.4 25.4 0 0 1-2-2 4.1 4.1 0 0 1 1.9-2.6 9.5 9.5 0 0 0 .7 1.6 7 7 0 0 0-.1 3.4Zm-4.5-5.8a6.2 6.2 0 0 1 .2-4.7 9 9 0 0 1 6-4.6c3-.8 6.2-.5 9.3-.2h.5a24.3 24.3 0 0 0-6.8 2c-2.4 1-4.7 3-5.1 5.7a6.2 6.2 0 0 0 0 1.7 5.8 5.8 0 0 0-2.6 2.7 11.9 11.9 0 0 1-1.5-2.6Zm35.5-6.5a42.8 42.8 0 0 0-8-2.4 39 39 0 0 0-4.7-.6l-5.2-1c-5.8-.7-13.2-1.5-17.4 3.6l-.4.5a6.2 6.2 0 0 1 .9-1.5 7.2 7.2 0 0 1 3.5-2.3 33.3 33.3 0 0 1 9-1.3 45.2 45.2 0 0 1 17.9 3 42.5 42.5 0 0 1 4.4 2Zm8.9 27.2h-.5a18.4 18.4 0 0 0 4.6-2 13 13 0 0 0 2.1-1.6 4.8 4.8 0 0 0 1.2-.7 1.7 1.7 0 0 0 .2-.2 6.7 6.7 0 0 1-.5.6 10.2 10.2 0 0 1-7.1 4Zm-41-12.9a8 8 0 0 1-1-2 23.8 23.8 0 0 0 2.5 1.9l.1.1a4 4 0 0 0 1.5 3.2 19.5 19.5 0 0 0 4 2.7c.4.4 1 .7 1.5 1l2 1.1a33.3 33.3 0 0 1-4.6-2.4 18.5 18.5 0 0 1-6-5.6Z" style="fill:#263238"/></svg>